<?xml version="1.0" encoding="UTF-8"?>
<svg width="700pt" height="700pt" version="1.1" viewBox="0 0 700 700" xmlns="http://www.w3.org/2000/svg" xmlns:xlink="http://www.w3.org/1999/xlink">
 <g>
  <path fill ="#FFFFFF" d="m339.7 510.5c-24.684-46.359-56.242-108.56-58.594-162-15.887 10.285-21.535 26.684-27.105 42.867-9.8945 28.746-19.625 56.98-69.992 62.863-5.4297 0.61328-10.352-3.2891-10.965-8.7188-0.61328-5.4297 3.2891-10.352 8.7188-10.965 37.918-4.4297 45.637-26.812 53.484-49.605 2.4141-7.0195 4.8477-14.062 7.9102-20.836-8.9102 2.9844-17.277 5.2383-25.113 6.8516-33.152 6.8047-78.664 4.5039-91.879-33.281-63.363-13.988-52.953-81.68-10.105-114.88 29.289-22.695 77.227-36.305 142.04-22.672-4.2461-4.1523-8.0898-8.5-11.926-12.844-13.898-15.723-27.82-31.469-67.902-34.234-5.457-0.36328-9.5859-5.0859-9.2188-10.543 0.36328-5.457 5.0859-9.5859 10.543-9.2188 48.156 3.3281 64.785 22.133 81.383 40.902 11.094 12.555 22.191 25.113 46.074 30.973-14.348-8.2422-26.047-21.742-26.047-39.27 0-24.008 21.047-47.914 42.352-57.484-3.4727-25.379-14.293-42.027-41.551-44.309-12.969-1.0508-11.395-20.82 1.6289-19.762 35.453 2.9688 53.793 25.113 59.152 58.715 4.6836-0.55078 9.418-0.54297 14.102-0.007812 5.3594-33.586 23.73-55.738 59.164-58.707 13.023-1.0586 14.598 18.711 1.6289 19.762-27.219 2.2734-38.086 18.898-41.543 44.254 21.391 9.4648 43.324 33.41 43.324 57.539 0 17.383-11.523 30.828-25.73 39.082 21.312-5.8945 31.438-18.203 41.562-30.512 15.535-18.898 31.102-37.82 76.387-41.18 5.457-0.37891 10.199 3.7305 10.574 9.1875 0.37891 5.457-3.7305 10.199-9.1875 10.574-36.82 2.7305-49.68 18.367-62.512 33.969-3.9023 4.7422-7.7969 9.4766-12.191 13.977 66.832-15.055 116.14-1.3477 146.02 21.801 46.828 36.266 50.605 106.98-17.09 116.12-14.312 37.723-60.836 38.832-94.094 31.477-6.4609-1.4297-13.273-3.293-20.445-5.6289 3.2148 7.4219 5.4453 15.234 7.6523 22.984 6.1133 21.465 12.09 42.43 49.496 46.797 5.4297 0.61328 9.332 5.5352 8.7188 10.965-0.61328 5.4297-5.5352 9.332-10.965 8.7188-50.594-5.9062-58.363-33.152-66.309-61.055-4.457-15.645-9.0039-31.555-25.016-41.539-3.6055 54.402-34.129 110.41-58.914 158.71-3.6641 7.1758-13.809 7.0781-17.516 0.15234zm109.02-228.36c-12.574-3.3516-7.4883-22.5 5.1211-19.141l88.465 23.707c12.574 3.3516 7.4883 22.5-5.1211 19.141zm-203.32-19.156c12.605-3.3594 17.691 15.789 5.1211 19.141l-88.465 23.707c-12.605 3.3594-17.691-15.789-5.1211-19.141zm36.859 62.668c2.4531-15.188 8.5391-28.605 19.551-39.098-8.1406-10.41-12.996-23.512-12.996-37.754 0-6.4961 1.0117-12.758 2.8984-18.641-77.895-27.355-132.96-15.426-163.58 8.293-36.246 28.078-42.039 73.773 14.16 81.766 7.6602 37.371 40.016 37.875 71.777 31.352 27.801-5.7227 43.852-16.098 68.188-25.922zm114.48 13.66c-33.449 17.777-62.418 16.688-95.895-0.24609-0.16406 4.2734-0.046874 8.7109 0.31641 13.273 32.18 19.762 62.418 23.469 95.066 2.4531 0.53516-5.3516 0.73438-10.523 0.50781-15.484zm-92.281-20.715c32.164 17.688 56.285 19.137 88.367 0.23047-2.3945-6.5469-6.2891-12.539-11.41-17.309-20.082 11.965-45.414 11.375-64.973-1.4805-5.5625 5.0938-9.4648 11.375-11.984 18.559zm87.203 61.254c-29.164 13.375-58 11.031-86.52-2.7773 1.4219 6.2383 3.1367 12.414 5.0117 18.527 22.527 16.504 56.805 23.27 77.129-0.47656 1.6328-5.1328 3.1094-10.23 4.3789-15.273zm-15.906 46.391c-18.137 6.5234-37.926 4.8398-55.586-2.4141 8.75 22.031 19.102 43.152 28.117 60.574 8.6055-16.828 18.711-37.094 27.469-58.16zm32.762-196.08c1.8789 5.8789 2.8984 12.145 2.8984 18.641 0 15.371-5.3594 28.652-14.75 39.883 11.383 11.383 16.266 24.281 18.711 39.059 23.699 11.984 44.289 19.461 61.871 23.348 32.547 7.1953 65.812 7.5 74.258-30.797 60.363-3.8242 60.547-50.871 20.578-81.844-30.605-23.711-85.68-35.645-163.56-8.2891zm-82.121-37.898c14.988-6.2852 32.457-6.3945 47.438 0 11.012-3.8164 25.562-12.93 25.562-26.379 0-22.047-28.316-43.41-49.773-43.41-21.562 0-48.793 21.391-48.793 43.41 0 13.445 14.551 22.562 25.562 26.379zm65.176 56.539c0-22.5-18.316-41.73-41.953-41.453-23.215 0.27734-40.961 19.141-40.961 41.453 0 22.926 18.598 41.484 41.539 41.457 22.68-0.03125 41.379-18.387 41.379-41.457z"/>
  <use x="70" y="569.921875" xlink:href="#v"/>
  <use x="72.425781" y="569.921875" xlink:href="#d"/>
  <use x="74.058594" y="569.921875" xlink:href="#a"/>
  <use x="76.300781" y="569.921875" xlink:href="#f"/>
  <use x="78.53125" y="569.921875" xlink:href="#c"/>
  <use x="80.113281" y="569.921875" xlink:href="#a"/>
  <use x="82.355469" y="569.921875" xlink:href="#b"/>
  <use x="85.875" y="569.921875" xlink:href="#j"/>
  <use x="88.242188" y="569.921875" xlink:href="#i"/>
  <use x="91.550781" y="569.921875" xlink:href="#b"/>
  <use x="93.917969" y="569.921875" xlink:href="#a"/>
  <use x="96.160156" y="569.921875" xlink:href="#h"/>
  <use x="99.214844" y="569.921875" xlink:href="#f"/>
  <use x="101.445312" y="569.921875" xlink:href="#b"/>
  <use x="103.8125" y="569.921875" xlink:href="#a"/>
  <use x="106.058594" y="569.921875" xlink:href="#u"/>
  <use x="108.023438" y="569.921875" xlink:href="#t"/>
  <use x="109.160156" y="569.921875" xlink:href="#s"/>
  <use x="111.527344" y="569.921875" xlink:href="#g"/>
  <use x="70" y="573.226562" xlink:href="#r"/>
  <use x="71.4375" y="573.226562" xlink:href="#d"/>
  <use x="73.070312" y="573.226562" xlink:href="#e"/>
  <use x="75.339844" y="573.226562" xlink:href="#q"/>
  <use x="79.9375" y="573.226562" xlink:href="#c"/>
  <use x="81.519531" y="573.226562" xlink:href="#p"/>
  <use x="83.875" y="573.226562" xlink:href="#a"/>
  <use x="87.269531" y="573.226562" xlink:href="#o"/>
  <use x="90.035156" y="573.226562" xlink:href="#e"/>
  <use x="92.308594" y="573.226562" xlink:href="#n"/>
  <use x="94.664062" y="573.226562" xlink:href="#g"/>
  <use x="98.167969" y="573.226562" xlink:href="#m"/>
  <use x="100.59375" y="573.226562" xlink:href="#d"/>
  <use x="102.222656" y="573.226562" xlink:href="#e"/>
  <use x="104.496094" y="573.226562" xlink:href="#l"/>
  <use x="105.628906" y="573.226562" xlink:href="#a"/>
  <use x="107.871094" y="573.226562" xlink:href="#k"/>
  <use x="109.832031" y="573.226562" xlink:href="#c"/>
 </g>
</svg>
